<mxfile host="Electron" agent="Mozilla/5.0 (Windows NT 10.0; Win64; x64) AppleWebKit/537.36 (KHTML, like Gecko) draw.io/24.7.8 Chrome/128.0.6613.36 Electron/32.0.1 Safari/537.36" version="24.7.8">
  <diagram name="第 1 页" id="2Kg0XednfVTO_4cVwnEz">
    <mxGraphModel dx="260" dy="555" grid="1" gridSize="10" guides="1" tooltips="1" connect="1" arrows="1" fold="1" page="1" pageScale="1" pageWidth="1169" pageHeight="827" background="#ffffff" math="0" shadow="0">
      <root>
        <mxCell id="0" />
        <mxCell id="1" parent="0" />
        <mxCell id="O7_Bp9CNJcUDQzAUC9pT-22" value="" style="edgeStyle=orthogonalEdgeStyle;shape=connector;curved=0;rounded=1;orthogonalLoop=1;jettySize=auto;html=1;shadow=0;strokeColor=#6c8ebf;strokeWidth=1.9685;align=center;verticalAlign=middle;fontFamily=Helvetica;fontSize=11;fontColor=default;labelBackgroundColor=default;endArrow=classic;fillColor=#dae8fc;" edge="1" parent="1" source="O7_Bp9CNJcUDQzAUC9pT-19" target="O7_Bp9CNJcUDQzAUC9pT-21">
          <mxGeometry relative="1" as="geometry" />
        </mxCell>
        <mxCell id="O7_Bp9CNJcUDQzAUC9pT-19" value="明文" style="rounded=1;whiteSpace=wrap;html=1;fontFamily=Helvetica;fontSize=11;fontColor=default;labelBackgroundColor=default;strokeColor=default;align=center;verticalAlign=middle;fillColor=default;" vertex="1" parent="1">
          <mxGeometry x="365" y="484" width="50" height="30" as="geometry" />
        </mxCell>
        <mxCell id="O7_Bp9CNJcUDQzAUC9pT-24" value="" style="edgeStyle=orthogonalEdgeStyle;shape=connector;curved=0;rounded=1;orthogonalLoop=1;jettySize=auto;html=1;shadow=0;strokeColor=#6c8ebf;strokeWidth=1.9685;align=center;verticalAlign=middle;fontFamily=Helvetica;fontSize=11;fontColor=default;labelBackgroundColor=default;endArrow=classic;fillColor=#dae8fc;" edge="1" parent="1" source="O7_Bp9CNJcUDQzAUC9pT-21" target="O7_Bp9CNJcUDQzAUC9pT-23">
          <mxGeometry relative="1" as="geometry" />
        </mxCell>
        <mxCell id="O7_Bp9CNJcUDQzAUC9pT-21" value="公钥加密" style="whiteSpace=wrap;html=1;fontSize=11;rounded=1;labelBackgroundColor=default;strokeColor=default;align=center;verticalAlign=middle;fontFamily=Helvetica;fontColor=default;fillColor=default;" vertex="1" parent="1">
          <mxGeometry x="453" y="484" width="70" height="30" as="geometry" />
        </mxCell>
        <mxCell id="O7_Bp9CNJcUDQzAUC9pT-26" value="" style="edgeStyle=orthogonalEdgeStyle;shape=connector;curved=0;rounded=1;orthogonalLoop=1;jettySize=auto;html=1;shadow=0;strokeColor=#6c8ebf;strokeWidth=1.9685;align=center;verticalAlign=middle;fontFamily=Helvetica;fontSize=11;fontColor=default;labelBackgroundColor=default;endArrow=classic;fillColor=#dae8fc;" edge="1" parent="1" source="O7_Bp9CNJcUDQzAUC9pT-23" target="O7_Bp9CNJcUDQzAUC9pT-25">
          <mxGeometry relative="1" as="geometry" />
        </mxCell>
        <mxCell id="O7_Bp9CNJcUDQzAUC9pT-23" value="密文" style="whiteSpace=wrap;html=1;fontSize=11;rounded=1;labelBackgroundColor=default;strokeColor=default;align=center;verticalAlign=middle;fontFamily=Helvetica;fontColor=default;fillColor=default;" vertex="1" parent="1">
          <mxGeometry x="560" y="484" width="50" height="30" as="geometry" />
        </mxCell>
        <mxCell id="O7_Bp9CNJcUDQzAUC9pT-28" value="" style="edgeStyle=orthogonalEdgeStyle;shape=connector;curved=0;rounded=1;orthogonalLoop=1;jettySize=auto;html=1;shadow=0;strokeColor=#6c8ebf;strokeWidth=1.9685;align=center;verticalAlign=middle;fontFamily=Helvetica;fontSize=11;fontColor=default;labelBackgroundColor=default;endArrow=classic;fillColor=#dae8fc;" edge="1" parent="1" source="O7_Bp9CNJcUDQzAUC9pT-25" target="O7_Bp9CNJcUDQzAUC9pT-27">
          <mxGeometry relative="1" as="geometry" />
        </mxCell>
        <mxCell id="O7_Bp9CNJcUDQzAUC9pT-25" value="私钥解密" style="whiteSpace=wrap;html=1;fontSize=11;rounded=1;labelBackgroundColor=default;strokeColor=default;align=center;verticalAlign=middle;fontFamily=Helvetica;fontColor=default;fillColor=default;" vertex="1" parent="1">
          <mxGeometry x="648" y="484" width="70" height="30" as="geometry" />
        </mxCell>
        <mxCell id="O7_Bp9CNJcUDQzAUC9pT-27" value="明文" style="whiteSpace=wrap;html=1;fontSize=11;rounded=1;labelBackgroundColor=default;strokeColor=default;align=center;verticalAlign=middle;fontFamily=Helvetica;fontColor=default;fillColor=default;" vertex="1" parent="1">
          <mxGeometry x="755" y="484" width="50" height="30" as="geometry" />
        </mxCell>
        <mxCell id="O7_Bp9CNJcUDQzAUC9pT-30" value="" style="edgeStyle=orthogonalEdgeStyle;shape=connector;curved=0;rounded=1;orthogonalLoop=1;jettySize=auto;html=1;shadow=0;strokeColor=#6c8ebf;strokeWidth=1.9685;align=center;verticalAlign=middle;fontFamily=Helvetica;fontSize=11;fontColor=default;labelBackgroundColor=default;endArrow=classic;fillColor=#dae8fc;" edge="1" source="O7_Bp9CNJcUDQzAUC9pT-31" target="O7_Bp9CNJcUDQzAUC9pT-33" parent="1">
          <mxGeometry relative="1" as="geometry" />
        </mxCell>
        <mxCell id="O7_Bp9CNJcUDQzAUC9pT-31" value="明文" style="rounded=1;whiteSpace=wrap;html=1;fontFamily=Helvetica;fontSize=11;fontColor=default;labelBackgroundColor=default;strokeColor=default;align=center;verticalAlign=middle;fillColor=default;" vertex="1" parent="1">
          <mxGeometry x="365" y="384" width="50" height="30" as="geometry" />
        </mxCell>
        <mxCell id="O7_Bp9CNJcUDQzAUC9pT-32" value="" style="edgeStyle=orthogonalEdgeStyle;shape=connector;curved=0;rounded=1;orthogonalLoop=1;jettySize=auto;html=1;shadow=0;strokeColor=#6c8ebf;strokeWidth=1.9685;align=center;verticalAlign=middle;fontFamily=Helvetica;fontSize=11;fontColor=default;labelBackgroundColor=default;endArrow=classic;fillColor=#dae8fc;" edge="1" source="O7_Bp9CNJcUDQzAUC9pT-33" target="O7_Bp9CNJcUDQzAUC9pT-35" parent="1">
          <mxGeometry relative="1" as="geometry" />
        </mxCell>
        <mxCell id="O7_Bp9CNJcUDQzAUC9pT-33" value="私钥签名" style="whiteSpace=wrap;html=1;fontSize=11;rounded=1;labelBackgroundColor=default;strokeColor=default;align=center;verticalAlign=middle;fontFamily=Helvetica;fontColor=default;fillColor=default;" vertex="1" parent="1">
          <mxGeometry x="453" y="384" width="70" height="30" as="geometry" />
        </mxCell>
        <mxCell id="O7_Bp9CNJcUDQzAUC9pT-34" value="" style="edgeStyle=orthogonalEdgeStyle;shape=connector;curved=0;rounded=1;orthogonalLoop=1;jettySize=auto;html=1;shadow=0;strokeColor=#6c8ebf;strokeWidth=1.9685;align=center;verticalAlign=middle;fontFamily=Helvetica;fontSize=11;fontColor=default;labelBackgroundColor=default;endArrow=classic;fillColor=#dae8fc;" edge="1" source="O7_Bp9CNJcUDQzAUC9pT-35" target="O7_Bp9CNJcUDQzAUC9pT-37" parent="1">
          <mxGeometry relative="1" as="geometry" />
        </mxCell>
        <mxCell id="O7_Bp9CNJcUDQzAUC9pT-35" value="密文" style="whiteSpace=wrap;html=1;fontSize=11;rounded=1;labelBackgroundColor=default;strokeColor=default;align=center;verticalAlign=middle;fontFamily=Helvetica;fontColor=default;fillColor=default;" vertex="1" parent="1">
          <mxGeometry x="560" y="384" width="50" height="30" as="geometry" />
        </mxCell>
        <mxCell id="O7_Bp9CNJcUDQzAUC9pT-36" value="" style="edgeStyle=orthogonalEdgeStyle;shape=connector;curved=0;rounded=1;orthogonalLoop=1;jettySize=auto;html=1;shadow=0;strokeColor=#6c8ebf;strokeWidth=1.9685;align=center;verticalAlign=middle;fontFamily=Helvetica;fontSize=11;fontColor=default;labelBackgroundColor=default;endArrow=classic;fillColor=#dae8fc;" edge="1" source="O7_Bp9CNJcUDQzAUC9pT-37" target="O7_Bp9CNJcUDQzAUC9pT-38" parent="1">
          <mxGeometry relative="1" as="geometry" />
        </mxCell>
        <mxCell id="O7_Bp9CNJcUDQzAUC9pT-37" value="公钥验签" style="whiteSpace=wrap;html=1;fontSize=11;rounded=1;labelBackgroundColor=default;strokeColor=default;align=center;verticalAlign=middle;fontFamily=Helvetica;fontColor=default;fillColor=default;" vertex="1" parent="1">
          <mxGeometry x="648" y="384" width="70" height="30" as="geometry" />
        </mxCell>
        <mxCell id="O7_Bp9CNJcUDQzAUC9pT-38" value="明文" style="whiteSpace=wrap;html=1;fontSize=11;rounded=1;labelBackgroundColor=default;strokeColor=default;align=center;verticalAlign=middle;fontFamily=Helvetica;fontColor=default;fillColor=default;" vertex="1" parent="1">
          <mxGeometry x="755" y="384" width="50" height="30" as="geometry" />
        </mxCell>
        <mxCell id="O7_Bp9CNJcUDQzAUC9pT-39" value="B-&amp;gt;SEND" style="text;html=1;align=left;verticalAlign=middle;resizable=0;points=[];autosize=1;strokeColor=none;fillColor=none;fontSize=16;fontColor=#0070F2;fontFamily=Helvetica;fontStyle=1;rounded=1;" vertex="1" parent="1">
          <mxGeometry x="365" y="344" width="90" height="30" as="geometry" />
        </mxCell>
        <mxCell id="O7_Bp9CNJcUDQzAUC9pT-41" value="A-&amp;gt;SEND" style="text;html=1;align=left;verticalAlign=middle;resizable=0;points=[];autosize=1;strokeColor=none;fillColor=none;fontSize=16;fontColor=#0070F2;fontFamily=Helvetica;fontStyle=1;rounded=1;" vertex="1" parent="1">
          <mxGeometry x="365" y="444" width="90" height="30" as="geometry" />
        </mxCell>
        <mxCell id="O7_Bp9CNJcUDQzAUC9pT-42" value="B-&amp;gt;RECV" style="text;html=1;align=right;verticalAlign=middle;resizable=0;points=[];autosize=1;strokeColor=none;fillColor=none;fontSize=16;fontColor=#0070F2;fontFamily=Helvetica;fontStyle=1;rounded=1;" vertex="1" parent="1">
          <mxGeometry x="715" y="444" width="90" height="30" as="geometry" />
        </mxCell>
        <mxCell id="O7_Bp9CNJcUDQzAUC9pT-43" value="A-&amp;gt;RECV" style="text;html=1;align=right;verticalAlign=middle;resizable=0;points=[];autosize=1;strokeColor=none;fillColor=none;fontSize=16;fontColor=#0070F2;fontFamily=Helvetica;fontStyle=1;rounded=1;" vertex="1" parent="1">
          <mxGeometry x="715" y="344" width="90" height="30" as="geometry" />
        </mxCell>
        <mxCell id="O7_Bp9CNJcUDQzAUC9pT-44" value="B生成公钥" style="text;html=1;align=left;verticalAlign=middle;resizable=0;points=[];autosize=1;strokeColor=none;fillColor=none;fontFamily=Helvetica;fontSize=11;fontColor=default;labelBackgroundColor=default;rounded=1;" vertex="1" parent="1">
          <mxGeometry x="365" y="314" width="70" height="30" as="geometry" />
        </mxCell>
      </root>
    </mxGraphModel>
  </diagram>
</mxfile>
